PathFileType	4	(X/Y/Z)	E:\Qualisys_Data\Carbon_Farble_Plate\Data\Amateur_Runner\S14\T2\S14T2V21_c3d.trc
DataRate	CameraRate	NumFrames	NumMarkers	Units	OrigDataRate	OrigDataStartFrame	OrigNumFrames
200.000000	200.000000	4	39	mm	200.000000	189	303
Frame#	Time	LSHO			RSHO			LICST			RICST			LASIS			LHEEL			RASIS			LTROC			RTROC			SACR			LTH1			LSK4			LTH2			LTH3			RHM5			LSK2			LTH4			RTH1			LTOE			RTH2			RTH3			RTH4			LLEP			RLEP			LSK1			LSK3			RSK1			LHM5			RSK2			LFT1			RSK3			RSK4			LLME			RLME			RTOE			RHEEL			RFT1			RFT2			LFT2			
		X1	Y1	Z1	X2	Y2	Z2	X3	Y3	Z3	X4	Y4	Z4	X5	Y5	Z5	X6	Y6	Z6	X7	Y7	Z7	X8	Y8	Z8	X9	Y9	Z9	X10	Y10	Z10	X11	Y11	Z11	X12	Y12	Z12	X13	Y13	Z13	X14	Y14	Z14	X15	Y15	Z15	X16	Y16	Z16	X17	Y17	Z17	X18	Y18	Z18	X19	Y19	Z19	X20	Y20	Z20	X21	Y21	Z21	X22	Y22	Z22	X23	Y23	Z23	X24	Y24	Z24	X25	Y25	Z25	X26	Y26	Z26	X27	Y27	Z27	X28	Y28	Z28	X29	Y29	Z29	X30	Y30	Z30	X31	Y31	Z31	X32	Y32	Z32	X33	Y33	Z33	X34	Y34	Z34	X35	Y35	Z35	X36	Y36	Z36	X37	Y37	Z37	X38	Y38	Z38	X39	Y39	Z39	

190	0.945	1011.262573242188	1436.826293945312	-495.8895263671875	1106.11279296875	1416.851196289062	-213.2944946289062	1010.706115722656	983.6202392578124	-494.4876403808594	1042.860595703125	974.1443481445312	-220.8312072753906	1054.01904296875	934.423828125	-474.4898681640625	875.200927734375	347.9189453125	-406.6938171386719	1065.658447265625	931.1333618164062	-240.9415588378906	939.5496826171876	867.1508178710938	-526.6948852539062	916.3104248046876	858.9121704101562	-189.7829742431641	885.9608764648438	981.406494140625	-358.41162109375	1142.496826171875	710.6463623046875	-531.6948852539062	1038.374389648438	467.9223022460938	-489.51708984375	1084.81689453125	661.039306640625	-511.9570922851562	1212.411010742188	640.8829956054688	-512.736572265625	704.58935546875	60.92177581787109	-243.7392578125	1111.5546875	532.53271484375	-508.0980529785156	1151.043701171875	591.9953002929688	-496.7657775878906	1003.355163574219	626.0044555664062	-207.8999786376953	1046.239135742188	155.2181243896484	-439.6507873535156	928.7899169921876	643.7464599609375	-197.0500183105469	980.6909790039062	532.9722290039062	-241.7813415527344	900.2877197265625	549.8480224609375	-221.7037658691406	1201.155639648438	566.0594482421875	-510.5910339355469	901.78173828125	473.5375671386719	-233.1481323242188	1167.611572265625	472.0823974609375	-503.0508117675781	1091.138061523438	406.4681396484375	-485.7634582519531	854.1138305664062	358.7440795898438	-236.2124328613281	985.1437377929688	193.2198791503906	-500.0370788574219	784.674072265625	408.821533203125	-227.5147705078125	861.4320678710938	320.1554870605469	-386.0489501953125	786.30029296875	281.4625854492188	-253.6632385253906	727.4309692382812	332.9432983398438	-243.9869842529297	936.4952392578124	327.3258972167969	-470.0210266113281	641.8782348632812	177.9708557128906	-273.147705078125	775.924560546875	42.81834411621094	-307.7121887207031	573.8197021484375	184.0384826660156	-329.9200744628906	573.593017578125	151.551513671875	-356.8563842773438	559.777099609375	159.9548950195312	-303.5232849121094	854.4326782226562	325.2516479492188	-440.6174621582031
191	0.95	1028.3203125	1442.329833984375	-495.8030090332031	1125.760131835938	1421.993896484375	-214.9396209716797	1030.54736328125	989.4891967773438	-494.6892700195312	1064.4111328125	978.1907958984376	-221.5661315917969	1073.972045898438	939.3555297851562	-474.6542053222656	907.6294555664062	336.3278503417969	-407.7002258300781	1087.158325195312	935.1644897460938	-241.7642974853516	960.832275390625	872.8287963867188	-527.4866333007812	937.2070922851562	863.9061279296875	-189.3844146728516	906.6755981445312	985.673828125	-358.4111633300781	1164.676879882812	716.6202392578125	-530.6691284179688	1065.284545898438	463.9579162597656	-489.7921447753906	1107.14013671875	666.8379516601562	-512.005859375	1234.367553710938	646.852294921875	-511.3894348144531	708.5823364257812	62.45157623291016	-242.8539581298828	1135.436645507812	531.7268676757812	-507.9197387695312	1173.05419921875	597.3252563476562	-496.6457214355469	1018.635864257812	629.6956787109375	-207.9091491699219	1088.523315429688	152.5331878662109	-438.1089477539062	944.3128662109376	648.8074951171875	-196.6853637695312	993.7755126953124	537.3058471679688	-241.0728912353516	913.9940795898438	555.0538330078125	-220.8811645507812	1224.025634765625	570.3602905273438	-509.5949096679688	913.458740234375	479.2038879394531	-232.2583770751953	1194.018798828125	474.5590209960938	-501.9812927246094	1121.273803710938	404.5166625976562	-485.3188171386719	863.6947021484375	365.4957275390625	-234.2046051025391	1025.890747070312	186.3236846923828	-499.2670593261719	794.9762573242188	415.7332763671875	-226.0918121337891	894.9348754882812	307.7131652832031	-387.2271118164062	796.2719116210938	287.9077758789062	-251.5194549560547	737.0447998046875	340.0382080078125	-242.6419982910156	970.096435546875	318.0055236816406	-470.1143188476562	651.5503540039062	184.5592651367188	-271.0905151367188	779.0061645507812	42.46916198730469	-306.2028503417969	587.194091796875	194.5517578125	-326.3851013183594	582.8162841796875	161.8155975341797	-355.0717163085938	569.6085815429688	170.9846649169922	-301.1768798828125	887.9508666992188	312.5634155273438	-441.9291687011719
192	0.955	1045.48095703125	1447.4501953125	-495.5901489257812	1145.868041992188	1426.935546875	-216.5148468017578	1050.136108398438	994.3665161132812	-495.3197937011719	1085.974975585938	982.0914306640624	-222.1557769775391	1094.2646484375	944.7470092773438	-475.3536376953125	940.1537475585938	324.3296203613281	-408.4318542480469	1108.306274414062	938.9993286132812	-242.8425598144531	981.8298950195312	878.1758422851562	-527.9697265625	957.2970581054688	868.3456420898438	-189.2702789306641	927.8260498046876	990.1396484375	-358.0843505859375	1186.59619140625	722.1788940429688	-530.0558471679688	1092.254638671875	459.6738586425781	-490.2499389648438	1128.816284179688	672.2694702148438	-512.2233276367188	1256.186401367188	652.2997436523438	-510.1671142578125	713.0458984375	64.84632873535156	-241.5102996826172	1159.085571289062	531.40576171875	-507.934814453125	1194.983520507812	602.5262451171875	-497.0302124023438	1033.909912109375	633.7359008789062	-207.0086517333984	1130.732666015625	149.9375	-436.7194519042969	960.3552856445312	654.0908813476562	-195.6869659423828	1006.987548828125	541.7998657226562	-240.1661987304688	927.844970703125	561.2352294921875	-220.2599487304688	1246.708129882812	573.7589721679688	-508.5438842773438	925.7135620117188	485.1250915527344	-230.6506652832031	1220.407958984375	476.7054443359375	-501.0083923339844	1150.864868164062	403.7395935058594	-485.129150390625	874.1771850585938	371.9790649414062	-232.4230346679688	1066.808471679688	180.0630950927734	-498.6151428222656	805.4652099609375	422.6226806640625	-225.0762023925781	928.8839721679688	295.2244873046875	-387.7506408691406	806.4072265625	294.5536804199219	-248.9413146972656	747.4451904296875	347.2937622070312	-241.1690368652344	1003.919860839844	309.169921875	-470.5752868652344	661.9498291015625	191.0465240478516	-268.9692077636719	781.9386596679688	41.28849792480469	-305.2584533691406	599.2470092773438	204.7935028076172	-324.3572387695312	592.8750610351562	172.7903137207031	-352.8577575683594	580.6241455078125	181.5939331054688	-299.2320556640625	922.3915405273438	299.5251159667969	-442.7575073242188
193	0.96	1062.967041015625	1452.813110351562	-495.335693359375	1165.304443359375	1431.854370117188	-218.2829437255859	1070.291137695312	999.5808715820312	-495.6954040527344	1107.521850585938	985.7077026367188	-223.2940521240234	1114.397338867188	949.5958862304688	-475.6134338378906	973.5426635742188	312.6484375	-409.1195983886719	1129.682495117188	942.804931640625	-243.9548645019531	1003.150085449219	883.7412109375	-528.6853637695312	977.8775634765624	873.1903686523438	-189.1154632568359	948.2982788085938	994.098388671875	-357.7346496582031	1208.115112304688	727.1738891601562	-528.9822998046875	1119.050659179688	455.5279541015625	-490.3869323730469	1150.41455078125	676.8955688476562	-511.8564147949219	1277.83251953125	657.1871948242188	-509.1009521484375	717.6616821289062	67.36078643798828	-240.3223266601562	1182.5546875	529.6867065429688	-507.6976318359375	1216.349243164062	607.2297973632812	-496.7404174804688	1048.514404296875	637.2080688476562	-207.16748046875	1172.730346679688	147.7709808349609	-435.7133178710938	975.8211669921876	659.3876953125	-195.5638427734375	1020.457275390625	545.7034912109375	-239.6398162841797	941.220458984375	566.612060546875	-219.3631134033203	1268.468627929688	578.6367797851562	-507.3605041503906	937.9505615234376	491.0310668945312	-229.4403991699219	1246.308959960938	478.7467956542969	-500.4353332519531	1180.26953125	402.0530090332031	-484.7720336914062	884.9111328125	378.3452453613281	-230.9201049804688	1107.260131835938	174.3975219726562	-498.004638671875	816.5276489257812	429.7258605957031	-223.84375	963.7030639648438	282.7162170410156	-388.430419921875	817.416259765625	301.2291870117188	-246.6113586425781	758.4198608398438	353.9267883300781	-240.1845855712891	1038.374877929688	300.9072265625	-470.4589538574219	672.8375854492188	197.74755859375	-266.8877868652344	785.32177734375	40.09064483642578	-304.6431274414062	611.9462890625	215.2506256103516	-321.552734375	604.2394409179688	183.5215606689453	-350.7837524414062	592.4598999023438	192.8022308349609	-296.6432495117188	957.79150390625	285.8749084472656	-442.3497619628906
